<svg viewBox="379.9168975069252 406.8 538.365650969529 88.2" xmlns="http://www.w3.org/2000/svg" data-name="Layer 1" id="Layer_1" style="max-height: 500px" width="538.365650969529" height="88.2">
  <defs>
    <style>
      .cls-1, .cls-2, .cls-3 {
        fill: #fff;
      }

      .cls-2 {
        opacity: .3;
      }

      .cls-3 {
        opacity: .6;
      }
    </style>
  </defs>
  <g>
    <g>
      <polygon points="453.86 419.7 453.86 450.03 423.52 450.03 453.86 419.7" class="cls-2"/>
      <polygon points="423.52 419.7 423.52 450.03 393.19 450.03 423.52 419.7" class="cls-1"/>
      <rect height="30.27" width="30.33" y="450.03" x="393.19" class="cls-3"/>
    </g>
    <rect height="32.61" width="8.41" y="436.98" x="565.51" class="cls-1"/>
    <path d="M484.93,442.59v-5.61h-8.42v32.61h8.42v-15.58c0-3.14.97-5.35,3-6.72,2.02-1.37,4.37-1.89,6.91-1.56v-9.4c-4.43,0-8.35,2.09-9.91,6.26Z" class="cls-1"/>
    <path d="M529.57,453.29c0-4.89-1.56-8.94-4.7-12.26-3.06-3.33-7.04-4.95-11.8-4.95-5.02,0-9.19,1.63-12.39,4.95-3.19,3.26-4.83,7.37-4.83,12.26s1.64,9.06,4.89,12.33c3.26,3.25,7.57,4.89,12.98,4.89,6.26,0,11.02-2.35,14.22-6.98l-6.78-3.92c-1.63,2.15-4.11,3.26-7.31,3.26-5.02,0-8.08-2.02-9.19-6.13h24.59c.19-1.24.32-2.35.32-3.46ZM504.53,450.22c.97-4.17,4.05-6.58,8.54-6.58,3.85,0,7.12,2.15,8.09,6.58h-16.63Z" class="cls-1"/>
    <path d="M553.56,436.98l-7.95,22.83-7.9-22.83h-9.26l12.39,32.61h9.59l12.39-32.61h-9.27Z" class="cls-1"/>
    <path d="M564.53,427.91c0-2.81,2.35-5.22,5.15-5.22s5.22,2.41,5.22,5.22-2.35,5.15-5.22,5.15-5.15-2.35-5.15-5.15Z" class="cls-2"/>
    <path d="M611.05,453.29c0-4.89-1.57-8.94-4.7-12.26-3.07-3.33-7.04-4.95-11.8-4.95-5.03,0-9.2,1.63-12.39,4.95-3.2,3.26-4.83,7.37-4.83,12.26s1.63,9.06,4.89,12.33c3.26,3.25,7.57,4.89,12.98,4.89,6.26,0,11.02-2.35,14.21-6.98l-6.78-3.92c-1.63,2.15-4.1,3.26-7.3,3.26-5.02,0-8.09-2.02-9.19-6.13h24.58c.2-1.24.33-2.35.33-3.46ZM585.99,450.22c.98-4.17,4.05-6.58,8.55-6.58,3.84,0,7.11,2.15,8.08,6.58h-16.63Z" class="cls-1"/>
    <path d="M650.29,436.98l-5.54,20.09-5.94-20.09h-7.95l-5.94,20.02-5.54-20.02h-8.94l10.37,32.61h8.03l6-19.76,5.99,19.76h8.03l10.37-32.61h-8.94Z" class="cls-1"/>
    <path d="M687.02,459.15c-1.83,3.46-5.48,5.67-9.86,5.67-3.25,0-5.99-1.1-8.22-3.32-2.15-2.23-3.25-4.97-3.25-8.22s1.1-6.07,3.25-8.28c2.23-2.23,4.97-3.33,8.22-3.33,4.38,0,8.03,2.28,9.65,5.74l4.76-2.74c-2.54-5.21-7.95-8.54-14.42-8.54-4.89,0-9,1.63-12.25,4.95-3.26,3.26-4.9,7.31-4.9,12.2s1.64,8.94,4.9,12.25c3.25,3.26,7.36,4.9,12.25,4.9,6.34,0,11.88-3.33,14.68-8.49l-4.83-2.8Z" class="cls-1"/>
    <path d="M695.41,421.98v47.61h5.67v-47.61h-5.67Z" class="cls-1"/>
    <path d="M737.75,453.35c0-4.76-1.5-8.81-4.56-12.14-3.01-3.39-6.91-5.08-11.68-5.08-5.03,0-9.14,1.63-12.33,4.89-3.2,3.26-4.76,7.37-4.76,12.26s1.63,9.06,4.83,12.33c3.26,3.19,7.5,4.83,12.65,4.83,6.4,0,11.16-2.48,14.35-7.37l-4.83-2.74c-1.96,3.2-5.08,4.76-9.39,4.76-6.21,0-10.7-3.39-11.81-9.2h27.33c.13-.85.19-1.69.19-2.54ZM710.22,450.93c.98-5.74,5.22-9.45,11.29-9.45,5.21,0,9.52,3.25,10.5,9.45h-21.79Z" class="cls-1"/>
    <path d="M769.54,436.98v5.61c-2.81-4.3-6.91-6.45-12.33-6.45-4.57,0-8.49,1.69-11.68,5.02-3.2,3.33-4.83,7.37-4.83,12.14s1.63,8.87,4.83,12.19c3.19,3.33,7.11,4.97,11.68,4.97,5.42,0,9.51-2.16,12.33-6.46v5.61h5.67v-32.61h-5.67ZM766.21,461.64c-2.22,2.22-4.96,3.33-8.28,3.33s-6-1.11-8.22-3.33c-2.22-2.29-3.33-5.03-3.33-8.35s1.11-6.07,3.33-8.28c2.22-2.29,4.96-3.39,8.22-3.39s6.07,1.1,8.28,3.39c2.22,2.22,3.33,4.95,3.33,8.28s-1.11,6.06-3.33,8.35Z" class="cls-1"/>
    <path d="M796.55,436.13c-4.76,0-8.29,1.82-10.57,5.54v-4.7h-5.67v32.61h5.67v-17.28c0-7.3,3.79-10.76,9.46-10.76,5.02,0,8.09,3.06,8.09,8.35v19.69h5.67v-20.02c0-8.28-5.02-13.43-12.65-13.43Z" class="cls-1"/>
    <path d="M846.19,453.35c0-4.76-1.5-8.81-4.57-12.14-3-3.39-6.91-5.08-11.68-5.08-5.02,0-9.13,1.63-12.33,4.89-3.19,3.26-4.75,7.37-4.75,12.26s1.63,9.06,4.83,12.33c3.25,3.19,7.49,4.83,12.65,4.83,6.39,0,11.15-2.48,14.35-7.37l-4.83-2.74c-1.96,3.2-5.09,4.76-9.4,4.76-6.2,0-10.69-3.39-11.8-9.2h27.33c.13-.85.19-1.69.19-2.54ZM818.66,450.93c.97-5.74,5.22-9.45,11.28-9.45,5.22,0,9.52,3.25,10.51,9.45h-21.79Z" class="cls-1"/>
    <path d="M855.61,442.46v-5.48h-5.67v32.61h5.67v-17.28c0-3.59.98-6.13,3-7.76,2.02-1.63,4.38-2.34,7.18-2.22v-5.94c-4.89,0-8.28,2.02-10.18,6.07Z" class="cls-1"/>
    <g>
      <path d="M894.6,430.43v1.22h1.73v4.48h1.28v-4.48h1.75v-1.22h-4.77Z" class="cls-1"/>
      <path d="M905.5,430.43l-1.85,3.06-1.86-3.06h-1.32v5.7h1.27v-3.41l1.83,3h.15l1.82-3.01v3.42h1.27v-5.7h-1.32Z" class="cls-1"/>
    </g>
    <path d="M880.69,450.68c5.09,1.11,11.87,3,11.8,9.98,0,2.93-1.17,5.35-3.46,7.11-2.28,1.76-5.15,2.67-8.74,2.67-6.33,0-11.09-3-12.98-7.63l4.89-2.8c1.04,3.13,4.11,5.09,8.09,5.09,3.72,0,6.46-1.37,6.46-4.44,0-2.54-2.87-3.98-6.46-4.83-5.15-1.37-11.8-3.07-11.8-9.98,0-2.8,1.11-5.15,3.26-6.98,2.22-1.83,4.96-2.74,8.28-2.74,5.28,0,9.65,2.54,11.74,6.78l-4.76,2.67c-1.17-2.8-3.52-4.17-6.98-4.17-3.2,0-5.8,1.57-5.8,4.37,0,2.54,2.87,3.91,6.46,4.89Z" class="cls-1"/>
  </g>
</svg>